<svg width="28" height="28" viewBox="0 0 28 28" fill="none" xmlns="http://www.w3.org/2000/svg">
<g clip-path="url(#clip0)">
<path d="M20.8277 27.5H7.67229C3.71741 27.5 0.5 24.2821 0.5 20.3277V7.17229C0.5 3.21783 3.71741 0 7.67229 0H20.8277C24.7826 0 28 3.21783 28 7.17229V20.3277C28 24.2821 24.7826 27.5 20.8277 27.5ZM7.67229 1.96422C4.80065 1.96422 2.46422 4.30065 2.46422 7.17229V20.3277C2.46422 23.1993 4.80065 25.5358 7.67229 25.5358H20.8277C23.6993 25.5358 26.0358 23.1993 26.0358 20.3277V7.17229C26.0358 4.30065 23.6993 1.96422 20.8277 1.96422H7.67229Z" fill="black"/>
<path d="M14.25 21.6072C9.91772 21.6072 6.39294 18.0824 6.39294 13.75C6.39294 9.41772 9.91772 5.89294 14.25 5.89294C18.5824 5.89294 22.1072 9.41772 22.1072 13.75C22.1072 18.0824 18.5824 21.6072 14.25 21.6072ZM14.25 7.85717C11.0005 7.85717 8.35717 10.5005 8.35717 13.75C8.35717 16.9996 11.0005 19.6429 14.25 19.6429C17.4996 19.6429 20.1429 16.9996 20.1429 13.75C20.1429 10.5005 17.4996 7.85717 14.25 7.85717Z" fill="black"/>
<path d="M23.0892 5.40171C23.0892 6.21535 22.4298 6.87499 21.6162 6.87499C20.8025 6.87499 20.1429 6.21535 20.1429 5.40171C20.1429 4.58808 20.8025 3.92865 21.6162 3.92865C22.4298 3.92865 23.0892 4.58808 23.0892 5.40171Z" fill="black"/>
</g>
<defs>
<clipPath id="clip0">
<rect width="27.5" height="27.5" fill="white" transform="translate(0.5)"/>
</clipPath>
</defs>
</svg>
