<svg width="400" height="93" viewBox="0 0 400 93" fill="none" xmlns="http://www.w3.org/2000/svg">
<g clip-path="url(#clip0)">
<path d="M224.75 37.55C222.583 37.55 220.583 37.0167 218.75 35.95C216.95 34.8833 215.517 33.45 214.45 31.65C213.383 29.85 212.85 27.8833 212.85 25.75C212.85 23.6167 213.383 21.65 214.45 19.85C215.517 18.05 216.95 16.6167 218.75 15.55C220.583 14.4833 222.583 13.95 224.75 13.95C226.85 13.95 228.85 14.5167 230.75 15.65C232.65 16.75 234.05 18.2 234.95 20V-0.500003H236.55V37H234.95V31.55C233.95 33.35 232.5 34.8 230.6 35.9C228.733 37 226.783 37.55 224.75 37.55ZM224.7 36.15C226.533 36.15 228.233 35.6833 229.8 34.75C231.4 33.7833 232.667 32.5167 233.6 30.95C234.567 29.35 235.05 27.6333 235.05 25.8C235.05 23.9667 234.567 22.25 233.6 20.65C232.667 19.05 231.4 17.7667 229.8 16.8C228.233 15.8333 226.533 15.35 224.7 15.35C222.867 15.35 221.167 15.8333 219.6 16.8C218.033 17.7333 216.783 19 215.85 20.6C214.917 22.2 214.45 23.9167 214.45 25.75C214.45 27.6167 214.9 29.35 215.8 30.95C216.733 32.5167 217.983 33.7833 219.55 34.75C221.15 35.6833 222.867 36.15 224.7 36.15ZM254.811 36.2C256.544 36.2 258.194 35.75 259.761 34.85C261.328 33.95 262.628 32.7167 263.661 31.15V33.7C262.428 35.0667 261.078 36.0667 259.611 36.7C258.144 37.3 256.478 37.6 254.611 37.6C252.544 37.6 250.594 37.05 248.761 35.95C246.961 34.85 245.511 33.3833 244.411 31.55C243.344 29.7167 242.811 27.7667 242.811 25.7C242.811 23.4667 243.344 21.4667 244.411 19.7C245.478 17.9 246.928 16.5 248.761 15.5C250.628 14.5 252.694 14 254.961 14C258.428 14 261.378 15.3667 263.811 18.1L248.111 33.6C249.211 34.5 250.278 35.1667 251.311 35.6C252.344 36 253.511 36.2 254.811 36.2ZM244.411 25.55C244.411 28.3167 245.328 30.6833 247.161 32.65L261.811 18.1C260.711 17.1333 259.644 16.45 258.611 16.05C257.578 15.6167 256.344 15.4 254.911 15.4C252.878 15.4 251.061 15.85 249.461 16.75C247.894 17.6167 246.661 18.8167 245.761 20.35C244.861 21.8833 244.411 23.6167 244.411 25.55ZM292.498 37.8C290.232 37.8 288.182 37.25 286.348 36.15C284.515 35.0167 283.082 33.5333 282.048 31.7C281.015 29.8333 280.498 27.8167 280.498 25.65C280.498 23.5167 281.015 21.5333 282.048 19.7C283.115 17.8667 284.548 16.4167 286.348 15.35C288.182 14.25 290.215 13.7 292.448 13.7C294.648 13.7 296.648 14.25 298.448 15.35C300.282 16.4167 301.715 17.8667 302.748 19.7C303.782 21.5333 304.298 23.5167 304.298 25.65C304.298 27.8833 303.798 29.9333 302.798 31.8C301.798 33.6333 300.398 35.1 298.598 36.2C296.832 37.2667 294.798 37.8 292.498 37.8ZM292.498 36.4C294.398 36.4 296.132 35.9167 297.698 34.95C299.265 33.9833 300.482 32.7 301.348 31.1C302.248 29.4667 302.698 27.6833 302.698 25.75C302.698 23.85 302.248 22.0833 301.348 20.45C300.448 18.8167 299.215 17.5167 297.648 16.55C296.082 15.5833 294.348 15.1 292.448 15.1C290.548 15.1 288.798 15.6 287.198 16.6C285.632 17.5667 284.382 18.8667 283.448 20.5C282.548 22.1333 282.098 23.9 282.098 25.8C282.098 27.7 282.548 29.4667 283.448 31.1C284.382 32.7 285.632 33.9833 287.198 34.95C288.798 35.9167 290.565 36.4 292.498 36.4ZM318.839 6.5C317.572 6.5 316.405 6.81667 315.339 7.45C314.272 8.05 313.422 8.9 312.789 10C312.189 11.0667 311.889 12.25 311.889 13.55V14.5H318.839V15.9H311.889V37H310.289V13.55C310.289 11.9833 310.655 10.5667 311.389 9.3C312.155 8 313.189 6.98333 314.489 6.25C315.822 5.48333 317.272 5.1 318.839 5.1V6.5ZM214.15 59.5H215.75V64.5C216.483 62.8333 217.733 61.5 219.5 60.5C221.267 59.4667 223.217 58.95 225.35 58.95C228.117 58.95 230.3 59.8333 231.9 61.6C233.533 63.3333 234.35 65.7667 234.35 68.9V82H232.75V68.9C232.75 66.2 232.083 64.1 230.75 62.6C229.45 61.1 227.617 60.35 225.25 60.35C223.517 60.35 221.917 60.75 220.45 61.55C219.017 62.3167 217.867 63.3833 217 64.75C216.167 66.1167 215.75 67.6667 215.75 69.4V82H214.15V59.5ZM252.264 82.55C250.13 82.55 248.147 82.0167 246.314 80.95C244.48 79.8833 243.03 78.45 241.964 76.65C240.897 74.8167 240.364 72.85 240.364 70.75C240.364 68.65 240.897 66.7 241.964 64.9C243.03 63.0667 244.48 61.6167 246.314 60.55C248.147 59.4833 250.13 58.95 252.264 58.95C254.43 58.95 256.48 59.5333 258.414 60.7C260.347 61.8333 261.697 63.3167 262.464 65.15V59.5H264.064V82H262.464V76.4C261.564 78.2667 260.164 79.7667 258.264 80.9C256.397 82 254.397 82.55 252.264 82.55ZM252.364 81.15C254.197 81.15 255.897 80.6833 257.464 79.75C259.03 78.7833 260.264 77.5167 261.164 75.95C262.097 74.35 262.564 72.6167 262.564 70.75C262.564 68.9167 262.097 67.2 261.164 65.6C260.23 64 258.98 62.7333 257.414 61.8C255.847 60.8333 254.147 60.35 252.314 60.35C250.48 60.35 248.764 60.8333 247.164 61.8C245.597 62.7667 244.33 64.05 243.364 65.65C242.43 67.25 241.964 68.9667 241.964 70.8C241.964 72.6333 242.43 74.35 243.364 75.95C244.33 77.5167 245.614 78.7833 247.214 79.75C248.814 80.6833 250.53 81.15 252.364 81.15ZM282.225 92.4C280.325 92.4 278.475 91.9667 276.675 91.1C274.875 90.2333 273.475 89.1 272.475 87.7V85.4C273.341 87 274.691 88.3333 276.525 89.4C278.391 90.4667 280.291 91 282.225 91C285.425 91 287.891 90.05 289.625 88.15C291.358 86.2833 292.225 83.5333 292.225 79.9V76.55C291.325 78.35 289.908 79.8167 287.975 80.95C286.075 82.05 284.075 82.6 281.975 82.6C279.841 82.6 277.858 82.0667 276.025 81C274.191 79.9333 272.741 78.5 271.675 76.7C270.608 74.8667 270.075 72.9 270.075 70.8C270.075 68.7 270.608 66.75 271.675 64.95C272.741 63.1167 274.191 61.6667 276.025 60.6C277.858 59.5333 279.841 59 281.975 59C284.175 59 286.208 59.55 288.075 60.65C289.941 61.75 291.325 63.2333 292.225 65.1V59.5H293.825V79.9C293.825 84 292.825 87.1 290.825 89.2C288.858 91.3333 285.991 92.4 282.225 92.4ZM282.075 81.2C283.908 81.2 285.608 80.7333 287.175 79.8C288.741 78.8333 289.975 77.5667 290.875 76C291.808 74.4 292.275 72.6667 292.275 70.8C292.275 68.9333 291.808 67.2167 290.875 65.65C289.975 64.05 288.741 62.7833 287.175 61.85C285.608 60.8833 283.908 60.4 282.075 60.4C280.208 60.4 278.475 60.8833 276.875 61.85C275.308 62.7833 274.041 64.05 273.075 65.65C272.141 67.2167 271.675 68.9333 271.675 70.8C271.675 72.6667 272.141 74.4 273.075 76C274.041 77.5667 275.308 78.8333 276.875 79.8C278.475 80.7333 280.208 81.2 282.075 81.2ZM312.084 81.2C313.818 81.2 315.468 80.75 317.034 79.85C318.601 78.95 319.901 77.7167 320.934 76.15V78.7C319.701 80.0667 318.351 81.0667 316.884 81.7C315.418 82.3 313.751 82.6 311.884 82.6C309.818 82.6 307.868 82.05 306.034 80.95C304.234 79.85 302.784 78.3833 301.684 76.55C300.618 74.7167 300.084 72.7667 300.084 70.7C300.084 68.4667 300.618 66.4667 301.684 64.7C302.751 62.9 304.201 61.5 306.034 60.5C307.901 59.5 309.968 59 312.234 59C315.701 59 318.651 60.3667 321.084 63.1L305.384 78.6C306.484 79.5 307.551 80.1667 308.584 80.6C309.618 81 310.784 81.2 312.084 81.2ZM301.684 70.55C301.684 73.3167 302.601 75.6833 304.434 77.65L319.084 63.1C317.984 62.1333 316.918 61.45 315.884 61.05C314.851 60.6167 313.618 60.4 312.184 60.4C310.151 60.4 308.334 60.85 306.734 61.75C305.168 62.6167 303.934 63.8167 303.034 65.35C302.134 66.8833 301.684 68.6167 301.684 70.55ZM327.086 59.5H328.686V62.9C330.219 60.2667 332.686 58.95 336.086 58.95C337.719 58.95 339.136 59.4167 340.336 60.35C341.536 61.25 342.369 62.6167 342.836 64.45C343.269 62.8167 344.219 61.5 345.686 60.5C347.186 59.4667 348.869 58.95 350.736 58.95C353.169 58.95 355.052 59.6667 356.386 61.1C357.719 62.5 358.386 64.5 358.386 67.1V82H356.786V67.1C356.786 65 356.236 63.35 355.136 62.15C354.069 60.95 352.652 60.35 350.886 60.35C349.552 60.35 348.319 60.6833 347.186 61.35C346.052 61.9833 345.152 62.85 344.486 63.95C343.819 65.05 343.486 66.2667 343.486 67.6V82H341.886V68C341.886 65.6 341.319 63.7333 340.186 62.4C339.052 61.0333 337.586 60.35 335.786 60.35C334.586 60.35 333.436 60.65 332.336 61.25C331.269 61.85 330.386 62.6667 329.686 63.7C329.019 64.7 328.686 65.8 328.686 67V82H327.086V59.5ZM376.633 81.2C378.367 81.2 380.017 80.75 381.583 79.85C383.15 78.95 384.45 77.7167 385.483 76.15V78.7C384.25 80.0667 382.9 81.0667 381.433 81.7C379.967 82.3 378.3 82.6 376.433 82.6C374.367 82.6 372.417 82.05 370.583 80.95C368.783 79.85 367.333 78.3833 366.233 76.55C365.167 74.7167 364.633 72.7667 364.633 70.7C364.633 68.4667 365.167 66.4667 366.233 64.7C367.3 62.9 368.75 61.5 370.583 60.5C372.45 59.5 374.517 59 376.783 59C380.25 59 383.2 60.3667 385.633 63.1L369.933 78.6C371.033 79.5 372.1 80.1667 373.133 80.6C374.167 81 375.333 81.2 376.633 81.2ZM366.233 70.55C366.233 73.3167 367.15 75.6833 368.983 77.65L383.633 63.1C382.533 62.1333 381.467 61.45 380.433 61.05C379.4 60.6167 378.167 60.4 376.733 60.4C374.7 60.4 372.883 60.85 371.283 61.75C369.717 62.6167 368.483 63.8167 367.583 65.35C366.683 66.8833 366.233 68.6167 366.233 70.55ZM399.684 82.3C397.218 82.3 395.168 81.55 393.534 80.05C391.934 78.55 391.134 76.4833 391.134 73.85V50.45H392.734V59.5H399.634V60.9H392.734V73.85C392.734 76.05 393.384 77.7833 394.684 79.05C396.018 80.2833 397.684 80.9 399.684 80.9V82.3Z" fill="black"/>
<path d="M6.773 5.05H12.245V16.678C17.489 7.672 25.925 3.169 37.553 3.169C43.139 3.169 47.984 4.765 52.088 7.957C56.192 11.035 59.042 15.709 60.638 21.979C62.12 16.393 65.369 11.89 70.385 8.47C75.515 4.936 81.272 3.169 87.656 3.169C95.978 3.169 102.419 5.62 106.979 10.522C111.539 15.31 113.819 22.15 113.819 31.042V82H108.347V31.042C108.347 23.86 106.466 18.217 102.704 14.113C99.056 10.009 94.211 7.957 88.169 7.957C83.609 7.957 79.391 9.097 75.515 11.377C71.639 13.543 68.561 16.507 66.281 20.269C64.001 24.031 62.861 28.192 62.861 32.752V82H57.389V34.12C57.389 25.912 55.451 19.528 51.575 14.968C47.699 10.294 42.683 7.957 36.527 7.957C32.423 7.957 28.49 8.983 24.728 11.035C21.08 13.087 18.059 15.88 15.665 19.414C13.385 22.834 12.245 26.596 12.245 30.7V82H6.773V5.05ZM157.929 83.881C150.633 83.881 143.85 82.057 137.58 78.409C131.31 74.761 126.351 69.859 122.703 63.703C119.055 57.433 117.231 50.707 117.231 43.525C117.231 36.343 119.055 29.674 122.703 23.518C126.351 17.248 131.31 12.289 137.58 8.641C143.85 4.993 150.633 3.169 157.929 3.169C165.339 3.169 172.35 5.164 178.962 9.154C185.574 13.03 190.191 18.103 192.813 24.373V5.05H198.285V82H192.813V62.848C189.735 69.232 184.947 74.362 178.449 78.238C172.065 82 165.225 83.881 157.929 83.881ZM158.271 79.093C164.541 79.093 170.355 77.497 175.713 74.305C181.071 70.999 185.289 66.667 188.367 61.309C191.559 55.837 193.155 49.909 193.155 43.525C193.155 37.255 191.559 31.384 188.367 25.912C185.175 20.44 180.9 16.108 175.542 12.916C170.184 9.61 164.37 7.957 158.1 7.957C151.83 7.957 145.959 9.61 140.487 12.916C135.129 16.222 130.797 20.611 127.491 26.083C124.299 31.555 122.703 37.426 122.703 43.696C122.703 49.966 124.299 55.837 127.491 61.309C130.797 66.667 135.186 70.999 140.658 74.305C146.13 77.497 152.001 79.093 158.271 79.093Z" fill="black"/>
</g>
<defs>
<clipPath id="clip0">
<rect width="400" height="93" fill="white"/>
</clipPath>
</defs>
</svg>
