<svg width="28" height="28" viewBox="0 0 28 28" fill="none" xmlns="http://www.w3.org/2000/svg">
<g clip-path="url(#clip0)">
<path d="M18.8401 5.82376C16.6037 5.82376 14.0054 7.51811 13.5299 10.3542C13.4732 10.6957 13.6195 11.0381 13.9043 11.2333C14.1899 11.4284 14.5625 11.44 14.8597 11.2625C15.2172 11.0488 15.4434 11.0168 15.5463 11.0168C15.6696 11.0168 15.6936 11.0559 15.714 11.0905C15.7956 11.228 15.8612 11.6564 15.5179 12.2916C14.9387 13.3685 14.4933 14.0196 14.1979 14.386C13.9691 13.7438 13.7056 12.6961 13.5725 12.1674C13.4643 11.7363 13.3765 11.212 13.2842 10.6575C12.932 8.55158 12.4938 5.9311 10.2849 5.9311C10.127 5.9311 9.95849 5.94707 9.78108 5.98166C7.43825 6.43941 4.70866 9.609 4.40527 9.96916C4.13737 10.2867 4.12672 10.7489 4.37955 11.0798L5.03866 11.9403C5.18237 12.1284 5.39616 12.2508 5.63124 12.2809C5.86455 12.3102 6.10317 12.2454 6.29035 12.0991C6.49616 11.9385 6.77027 11.7735 6.97342 11.6813C7.26172 12.4149 7.80019 14.1651 8.17721 15.3884C8.831 17.5104 9.24704 18.8392 9.52293 19.407C10.072 20.538 11.259 21.6788 12.673 21.6788C13.2106 21.6788 13.7322 21.5174 14.2254 21.2016C15.9677 20.0776 21.159 15.6537 22.1241 10.2468C22.4302 8.5365 21.9343 7.50924 21.4659 6.9486C20.8582 6.22295 19.9259 5.82376 18.8401 5.82376ZM20.3783 9.93368C19.5178 14.7542 14.4676 18.9333 13.2638 19.7095C13.0598 19.8417 12.8664 19.9055 12.6721 19.9055C12.0645 19.9055 11.4187 19.25 11.1188 18.6325C10.8837 18.1464 10.3462 16.4042 9.87333 14.8668C8.86825 11.6041 8.55067 10.6673 8.2322 10.2921C7.97938 9.99489 7.61124 9.83166 7.19519 9.83166C7.11713 9.83166 7.03817 9.83698 6.95833 9.84852C7.91462 8.92682 9.16632 7.90932 10.1199 7.72303C10.1776 7.7115 10.2326 7.70529 10.2849 7.70529C10.992 7.70529 11.3184 9.6569 11.534 10.9494C11.6324 11.5402 11.7247 12.0991 11.8516 12.5994C12.4654 15.0363 12.8362 16.5071 14.032 16.5071C14.4321 16.5071 15.2633 16.5071 17.0801 13.1317C17.6514 12.0742 17.7099 10.9716 17.238 10.1794C16.9302 9.66489 16.4299 9.33932 15.8373 9.25948C16.5523 8.20739 17.7782 7.59618 18.8401 7.59618C19.2304 7.59618 19.7662 7.68134 20.1051 8.08586C20.4307 8.4744 20.5247 9.11311 20.3783 9.93368Z" fill="black"/>
<path d="M20.1131 0H7.38685C3.3133 0 0 3.3133 0 7.38685V20.1131C0 24.1867 3.3133 27.5 7.38685 27.5H20.1131C24.1867 27.5 27.5 24.1867 27.5 20.114V7.38685C27.5 3.3133 24.1867 0 20.1131 0ZM25.7258 20.114C25.7258 23.2091 23.2082 25.7267 20.1131 25.7267H7.38685C4.29177 25.7267 1.77419 23.2091 1.77419 20.114V7.38685C1.77419 4.29177 4.29177 1.77419 7.38685 1.77419H20.1131C23.2082 1.77419 25.7258 4.29177 25.7258 7.38685V20.114Z" fill="black"/>
</g>
<defs>
<clipPath id="clip0">
<rect width="27.5" height="27.5" fill="white"/>
</clipPath>
</defs>
</svg>
