<svg width="29" height="28" viewBox="0 0 29 28" fill="none" xmlns="http://www.w3.org/2000/svg">
<g clip-path="url(#clip0)">
<path d="M18.7329 12.5142L12.6575 9.18996C12.3081 8.99883 11.8952 9.00596 11.5528 9.20884C11.2102 9.41194 11.0059 9.77071 11.0059 10.1689V16.7603C11.0059 17.1566 11.209 17.5147 11.5493 17.718C11.727 17.8242 11.924 17.8775 12.1214 17.8775C12.3023 17.8775 12.4835 17.8328 12.6503 17.743L18.7259 14.4761C19.0866 14.282 19.3117 13.9071 19.3134 13.4973C19.3149 13.0876 19.0925 12.711 18.7329 12.5142ZM12.6174 15.9311V11.0048L17.1581 13.4893L12.6174 15.9311Z" fill="black"/>
<path d="M28.0477 8.24609L28.0465 8.2335C28.0232 8.01216 27.7913 6.04332 26.8342 5.0419C25.7279 3.86404 24.4736 3.72095 23.8704 3.65234C23.8205 3.64668 23.7748 3.64143 23.7339 3.63598L23.6858 3.63094C20.0503 3.36658 14.5598 3.3305 14.5048 3.33029L14.5 3.33008L14.4952 3.33029C14.4402 3.3305 8.94972 3.36658 5.28144 3.63094L5.23297 3.63598C5.19395 3.64122 5.15094 3.64605 5.10415 3.6515C4.50787 3.72032 3.26707 3.86362 2.1576 5.08407C1.24599 6.07479 0.982467 8.00146 0.955402 8.21798L0.952255 8.24609C0.944073 8.3382 0.75 10.5309 0.75 12.7322V14.79C0.75 16.9913 0.944073 19.184 0.952255 19.2763L0.953724 19.2902C0.977012 19.508 1.20864 21.4407 2.16138 22.4426C3.20161 23.581 4.5169 23.7316 5.22437 23.8126C5.3362 23.8254 5.4325 23.8363 5.49817 23.8478L5.56174 23.8567C7.66087 24.0564 14.2423 24.1548 14.5214 24.1588L14.5298 24.159L14.5382 24.1588C14.5931 24.1586 20.0834 24.1225 23.719 23.8581L23.767 23.8531C23.813 23.847 23.8646 23.8416 23.9212 23.8357C24.5141 23.7727 25.7482 23.642 26.8424 22.4381C27.754 21.4472 28.0177 19.5206 28.0446 19.3042L28.0477 19.2761C28.0559 19.1838 28.2502 16.9913 28.2502 14.79V12.7322C28.25 10.5309 28.0559 8.33841 28.0477 8.24609ZM26.6384 14.79C26.6384 16.8275 26.4605 18.9257 26.4437 19.1184C26.3753 19.649 26.0973 20.8679 25.6532 21.3507C24.9684 22.1041 24.2649 22.1788 23.7513 22.2332C23.6892 22.2397 23.6317 22.246 23.5796 22.2525C20.0633 22.5068 14.7801 22.5458 14.5367 22.5472C14.2637 22.5433 7.77857 22.444 5.74343 22.255C5.63916 22.238 5.52649 22.225 5.40774 22.2116C4.80538 22.1425 3.98084 22.0481 3.3468 21.3507L3.3319 21.3348C2.8955 20.8801 2.62548 19.7402 2.55687 19.1246C2.54407 18.979 2.36154 16.856 2.36154 14.79V12.7322C2.36154 10.6971 2.53903 8.60109 2.55624 8.4045C2.63785 7.77948 2.9211 6.63435 3.3468 6.17151C4.05259 5.39522 4.79678 5.3092 5.28899 5.25234C5.33599 5.24689 5.37984 5.24185 5.42033 5.2366C8.98791 4.98106 14.3091 4.94308 14.5 4.94161C14.6909 4.94287 20.0102 4.98106 23.5461 5.2366C23.5895 5.24206 23.6369 5.24751 23.6879 5.25339C24.1942 5.31109 24.9593 5.39837 25.6616 6.14738L25.6681 6.15431C26.1045 6.60896 26.3745 7.76878 26.4431 8.39674C26.4553 8.53416 26.6384 10.6618 26.6384 12.7322V14.79Z" fill="black"/>
</g>
<defs>
<clipPath id="clip0">
<rect width="27.5001" height="27.5" fill="white" transform="translate(0.75)"/>
</clipPath>
</defs>
</svg>
